<svg width="64" height="64" viewBox="0 0 64 64" xmlns="http://www.w3.org/2000/svg">
  <!-- Pixel art Reindeer - Idle frame 3 (back legs up) -->
  <!-- Legs (back raised) -->
  <rect x="40" y="48" width="4" height="12" fill="#8B4513"/>
  <rect x="32" y="46" width="4" height="14" fill="#8B4513"/>
  <rect x="28" y="46" width="4" height="14" fill="#8B4513"/>
  <rect x="20" y="48" width="4" height="12" fill="#8B4513"/>

  <!-- Hooves -->
  <rect x="40" y="60" width="4" height="4" fill="#3E2723"/>
  <rect x="32" y="60" width="4" height="4" fill="#3E2723"/>
  <rect x="28" y="60" width="4" height="4" fill="#3E2723"/>
  <rect x="20" y="60" width="4" height="4" fill="#3E2723"/>

  <!-- Body -->
  <rect x="16" y="32" width="32" height="4" fill="#A0522D"/>
  <rect x="12" y="36" width="40" height="12" fill="#A0522D"/>
  <rect x="16" y="48" width="32" height="4" fill="#A0522D"/>

  <!-- Neck -->
  <rect x="44" y="28" width="8" height="8" fill="#A0522D"/>

  <!-- Head -->
  <rect x="40" y="16" width="16" height="4" fill="#A0522D"/>
  <rect x="40" y="20" width="20" height="8" fill="#A0522D"/>
  <rect x="44" y="28" width="12" height="4" fill="#A0522D"/>

  <!-- Tail -->
  <rect x="8" y="36" width="8" height="4" fill="#654321"/>
  <rect x="8" y="32" width="4" height="4" fill="#654321"/>

  <!-- Antlers -->
  <rect x="44" y="12" width="4" height="4" fill="#654321"/>
  <rect x="44" y="8" width="4" height="4" fill="#654321"/>
  <rect x="40" y="8" width="4" height="4" fill="#654321"/>
  <rect x="44" y="4" width="4" height="4" fill="#654321"/>
  <rect x="52" y="12" width="4" height="4" fill="#654321"/>
  <rect x="48" y="8" width="4" height="4" fill="#654321"/>
  <rect x="52" y="8" width="4" height="4" fill="#654321"/>
  <rect x="48" y="4" width="4" height="4" fill="#654321"/>

  <!-- Eye -->
  <rect x="48" y="24" width="4" height="4" fill="#000000"/>

  <!-- Rudolph's red nose! -->
  <rect x="60" y="24" width="4" height="4" fill="#FF0000"/>
  <circle cx="62" cy="26" r="3" fill="#FF0000" opacity="0.6"/>

  <!-- Ear -->
  <rect x="40" y="16" width="4" height="4" fill="#8B4513"/>

  <!-- Belly (lighter) -->
  <rect x="20" y="40" width="24" height="4" fill="#D2691E"/>

  <!-- Collar with bell -->
  <rect x="44" y="32" width="8" height="4" fill="#DC143C"/>
  <rect x="44" y="32" width="4" height="4" fill="#FFD700"/>
</svg>
