<svg width="64" height="64" viewBox="0 0 64 64" xmlns="http://www.w3.org/2000/svg">
  <!-- Pixel art Reindeer (Rudolph) - Dizzy version -->
  <!-- Legs -->
  <rect x="20" y="48" width="4" height="12" fill="#8B4513"/>
  <rect x="28" y="48" width="4" height="12" fill="#8B4513"/>
  <rect x="32" y="48" width="4" height="12" fill="#8B4513"/>
  <rect x="40" y="48" width="4" height="12" fill="#8B4513"/>

  <!-- Hooves -->
  <rect x="20" y="60" width="4" height="4" fill="#3E2723"/>
  <rect x="28" y="60" width="4" height="4" fill="#3E2723"/>
  <rect x="32" y="60" width="4" height="4" fill="#3E2723"/>
  <rect x="40" y="60" width="4" height="4" fill="#3E2723"/>

  <!-- Body -->
  <rect x="16" y="32" width="32" height="4" fill="#A0522D"/>
  <rect x="12" y="36" width="40" height="12" fill="#A0522D"/>
  <rect x="16" y="48" width="32" height="4" fill="#A0522D"/>

  <!-- Neck -->
  <rect x="12" y="28" width="8" height="8" fill="#A0522D"/>

  <!-- Head -->
  <rect x="8" y="16" width="16" height="4" fill="#A0522D"/>
  <rect x="4" y="20" width="20" height="8" fill="#A0522D"/>
  <rect x="8" y="28" width="12" height="4" fill="#A0522D"/>

  <!-- Tail -->
  <rect x="48" y="36" width="8" height="4" fill="#654321"/>
  <rect x="52" y="32" width="4" height="4" fill="#654321"/>

  <!-- Antlers -->
  <!-- Left antler -->
  <rect x="8" y="12" width="4" height="4" fill="#654321"/>
  <rect x="12" y="8" width="4" height="4" fill="#654321"/>
  <rect x="8" y="8" width="4" height="4" fill="#654321"/>
  <rect x="12" y="4" width="4" height="4" fill="#654321"/>

  <!-- Right antler -->
  <rect x="16" y="12" width="4" height="4" fill="#654321"/>
  <rect x="16" y="8" width="4" height="4" fill="#654321"/>
  <rect x="20" y="8" width="4" height="4" fill="#654321"/>
  <rect x="16" y="4" width="4" height="4" fill="#654321"/>

  <!-- Dizzy Eye (Spiral pattern) -->
  <rect x="10" y="24" width="2" height="2" fill="#000000"/>
  <rect x="12" y="22" width="2" height="2" fill="#000000"/>
  <rect x="14" y="24" width="2" height="2" fill="#000000"/>
  <rect x="12" y="26" width="2" height="2" fill="#000000"/>

  <!-- Rudolph's red nose! -->
  <rect x="0" y="24" width="4" height="4" fill="#FF0000"/>
  <circle cx="2" cy="26" r="3" fill="#FF0000" opacity="0.6"/>

  <!-- Ear -->
  <rect x="20" y="16" width="4" height="4" fill="#8B4513"/>

  <!-- Belly (lighter) -->
  <rect x="20" y="40" width="24" height="4" fill="#D2691E"/>

  <!-- Collar with bell -->
  <rect x="12" y="32" width="8" height="4" fill="#DC143C"/>
  <rect x="16" y="32" width="4" height="4" fill="#FFD700"/>
</svg>
